<svg width="138" height="128" viewBox="0 0 138 128" fill="none" xmlns="http://www.w3.org/2000/svg">
<g id="31">
<path id="Vector" d="M72.5589 64.3103C73.2695 64.5289 74.0312 64.6229 74.7786 64.9293C79.5997 66.833 84.4718 68.6122 89.2419 70.6405C91.3594 71.5086 93.2359 72.7872 95.3391 73.8676C95.5004 74.0065 95.7495 74.1087 95.9108 74.2475C100.493 77.7992 99.9654 82.4571 94.6967 84.6619C91.5354 85.9848 88.2047 86.6563 84.8965 87.6279C76.5013 90.006 68.0183 92.4208 59.6599 94.8867C52.5676 96.9259 45.512 99.053 38.3319 101.129C38.7424 101.37 39.2406 101.574 39.7388 101.778C44.5375 103.382 49.3505 104.773 54.0981 106.501C57.9738 107.872 61.7473 109.492 65.5209 111.112C66.3928 111.469 67.6894 111.855 67.3544 113.027C66.9683 114.324 65.5838 113.974 64.6098 113.866C61.5263 113.402 58.3918 113.063 55.3737 112.262C46.979 110.203 38.5987 107.931 30.2183 105.659C29.1708 105.375 27.9987 105.04 27.0533 104.507C24.3783 103.047 23.7374 100.529 25.4469 97.9562C25.7757 97.509 26.1045 97.0618 26.4701 96.7025C30.7834 92.2145 35.2437 88.0778 40.2247 84.4455C40.8537 83.9759 41.6073 83.5574 42.4344 83.3145C43.3125 82.947 44.2355 83.1799 44.8664 83.9478C45.4973 84.7157 45.6013 85.704 44.9948 86.4738C44.4249 87.3314 43.7673 88.2258 43.0361 88.9445C40.6528 91.3865 38.1081 93.6897 35.688 96.0439C35.1836 96.5646 34.7669 97.0485 34.1236 97.7305C43.9157 94.2519 53.4219 90.5834 62.9729 87.5152C72.6118 84.4103 82.3466 81.7812 92.3959 78.9173C91.7874 78.4496 91.3546 77.9084 90.8196 77.6164C88.4673 76.4338 86.0782 75.1633 83.587 74.142C78.6046 72.0994 73.4833 70.2181 68.5009 68.1755C67.2921 67.7526 66.0465 67.242 64.9397 66.57C62.4404 65.0362 62.502 62.2242 64.9159 60.595C65.8962 59.9784 66.9499 59.5374 68.0772 59.272C75.2654 57.7086 82.5047 56.0206 89.7664 54.6329C96.0398 53.3491 102.336 52.3655 108.609 51.0818C110.9 50.6389 113.169 49.8958 115.328 48.8893C117.611 47.9339 117.909 46.674 116.237 44.8972C114.924 43.486 113.486 42.0237 111.757 41.0964C107.814 38.8252 103.783 36.5908 99.548 34.8545C86.0812 29.5518 72.3161 25.5091 58.2385 22.9386C57.5646 22.8078 56.9642 22.8527 56.4292 22.5606C55.8942 22.2685 55.3368 21.6763 55.2042 21.1127C54.9612 20.2856 55.6046 19.6036 56.3438 19.3975C57.0831 19.1913 57.8591 19.0729 58.6207 19.167C60.3197 19.2815 62.1433 19.4471 63.8279 19.774C77.0194 22.1994 89.8758 25.7969 102.281 31.028C106.391 32.7132 110.334 34.9844 114.24 37.1678C116.007 38.1829 117.532 39.6084 118.969 41.0707C119.776 41.7651 120.268 42.6943 120.848 43.5867C122.706 47.04 121.978 50.2337 118.746 52.6185C116.054 54.5704 112.833 55.5053 109.678 56.1033C101.677 57.6973 93.7275 59.1667 85.7265 60.7606C81.3564 61.6607 76.9863 62.5608 72.5284 63.4976C72.5508 63.7977 72.5365 64.0101 72.5589 64.3103Z" fill="#0B3470" fill-opacity="0.4"/>
</g>
</svg>
