<svg width="42" height="42" viewBox="0 0 42 42" fill="none" xmlns="http://www.w3.org/2000/svg">
<path id="Star 1" d="M19.1511 1.48353C19.8315 -0.166491 22.1685 -0.166485 22.849 1.48354L25.1947 7.17179C25.6167 8.19519 26.7898 8.6811 27.8119 8.25587L33.4928 5.89237C35.1407 5.20678 36.7932 6.85929 36.1076 8.50718L33.7441 14.1881C33.3189 15.2102 33.8048 16.3833 34.8282 16.8053L40.5165 19.1511C42.1665 19.8315 42.1665 22.1685 40.5165 22.849L34.8282 25.1947C33.8048 25.6167 33.3189 26.7898 33.7441 27.8119L36.1076 33.4928C36.7932 35.1407 35.1407 36.7932 33.4928 36.1076L27.8119 33.7441C26.7898 33.3189 25.6167 33.8048 25.1947 34.8282L22.8489 40.5165C22.1685 42.1665 19.8315 42.1665 19.151 40.5165L16.8053 34.8282C16.3833 33.8048 15.2102 33.3189 14.1881 33.7441L8.50718 36.1076C6.85929 36.7932 5.20678 35.1407 5.89237 33.4928L8.25587 27.8119C8.6811 26.7898 8.19519 25.6167 7.17179 25.1947L1.48353 22.8489C-0.166491 22.1685 -0.166485 19.8315 1.48354 19.151L7.17179 16.8053C8.19519 16.3833 8.6811 15.2102 8.25587 14.1881L5.89237 8.50718C5.20678 6.85929 6.85929 5.20678 8.50718 5.89237L14.1881 8.25587C15.2102 8.6811 16.3833 8.19519 16.8053 7.17179L19.1511 1.48353Z" fill="black"/>
</svg>
